<svg xmlns="http://www.w3.org/2000/svg" width="191.464" height="55.751" viewBox="0 0 191.464 55.751"><g transform="translate(-846 -301)"><g transform="translate(846 300.717)"><path d="M36.083,30.22a2.611,2.611,0,1,1,2.529-2.61,2.616,2.616,0,0,1-2.529,2.61M24.341,39.27a13.151,13.151,0,0,1-5.814-1.219l-.715,1.219a14.582,14.582,0,0,0,6.529,1.391,14.585,14.585,0,0,0,6.522-1.391l-.709-1.219a13.2,13.2,0,0,1-5.813,1.219m-11.75-9.05a2.61,2.61,0,1,1,2.61-2.61,2.611,2.611,0,0,1-2.61,2.61" transform="translate(3.07 7.541)" fill="#fff" fill-rule="evenodd"/><path d="M52.256,47.76A3.647,3.647,0,0,1,48.609,51.4H5.059a3.648,3.648,0,0,1-3.648-3.641V26.372a3.65,3.65,0,0,1,3.646-3.641H48.609a3.65,3.65,0,0,1,3.646,3.641V47.758Zm1.4-21.465a5.055,5.055,0,0,0-5.051-4.972H44.068A12.105,12.105,0,0,0,40.351,16.5V8.234a4.007,4.007,0,1,0-1.411,0v7.25a22.591,22.591,0,0,0-12.1-3.29,22.6,22.6,0,0,0-12.11,3.29V8.234a4.007,4.007,0,1,0-1.409,0V16.5A12.121,12.121,0,0,0,9.6,21.322H5.057A5.061,5.061,0,0,0,0,26.373V47.76a5.049,5.049,0,0,0,4.979,5.045.376.376,0,0,0,.078.005H9.367v3.224H44.3V52.81h4.309a5.057,5.057,0,0,0,5.057-5.051V26.373a.323.323,0,0,0-.007-.078Z" fill="#fff" fill-rule="evenodd"/><path d="M9,23.305h5.22V22H9Zm23.492,0h5.22V22h-5.22Z" transform="translate(2.746 6.626)" fill="#fff" fill-rule="evenodd"/></g><path d="M-49.006-32.994q2.374.047,4.914.237a34.525,34.525,0,0,1,5.056.76l-.332,3.371q-2.041-.095-4.581-.142t-4.914-.047q-1.662,0-2.848.095a4.728,4.728,0,0,0-1.946.522,2.521,2.521,0,0,0-1.116,1.377,7.671,7.671,0,0,0-.356,2.611,5.173,5.173,0,0,0,.949,3.537A6.13,6.13,0,0,0-51.1-19.131l6.6,1.757q3.8.949,5.222,3.2A11.235,11.235,0,0,1-37.85-8.117a13.707,13.707,0,0,1-.641,4.605A5.5,5.5,0,0,1-40.485-.806,8.653,8.653,0,0,1-43.974.523a29.444,29.444,0,0,1-5.08.38Q-50.668.9-53.327.76a46.1,46.1,0,0,1-6.124-.807l.332-3.466q2.8.095,4.581.166t3.062.071h2.564a15.618,15.618,0,0,0,3.75-.356,2.892,2.892,0,0,0,1.946-1.424,6.763,6.763,0,0,0,.57-3.11,7.55,7.55,0,0,0-.4-2.754,2.917,2.917,0,0,0-1.282-1.5,8.775,8.775,0,0,0-2.255-.831L-53.374-15.1a8.455,8.455,0,0,1-5.032-3.228,10.63,10.63,0,0,1-1.472-5.934,13.707,13.707,0,0,1,.641-4.605,5.149,5.149,0,0,1,1.97-2.635A8.311,8.311,0,0,1-53.9-32.685,33.283,33.283,0,0,1-49.006-32.994Zm21.648.095-.047,26.633a2.872,2.872,0,0,0,.831,2.231,3.285,3.285,0,0,0,2.3.76h2.184L-21.566.1a4.808,4.808,0,0,1-1.306.38q-.831.142-1.709.214t-1.5.071A5.9,5.9,0,0,1-30.325-.759a5.822,5.822,0,0,1-1.59-4.415V-32.9Zm14.48,10.065V.333h-4.51V-22.834Zm-1.187-9.922a1.217,1.217,0,0,1,1.377,1.377v2.706A1.217,1.217,0,0,1-14.065-27.3H-16.2a1.217,1.217,0,0,1-1.377-1.377V-31.38A1.217,1.217,0,0,1-16.2-32.757ZM7.3-23.4q4.32,0,6.362,2.777T15.7-11.346a24.585,24.585,0,0,1-.5,5.222,9.714,9.714,0,0,1-1.685,3.845A7.33,7.33,0,0,1,10.313.1,13.858,13.858,0,0,1,5.21.9Q4.023.9,2.6.808T-.3.5Q-1.769.286-3.146-.023A15.161,15.161,0,0,1-5.662-.806L-2.007-3.8A24.048,24.048,0,0,0,.438-3.18a18.092,18.092,0,0,0,2.421.309Q4.07-2.8,5.115-2.8a7.172,7.172,0,0,0,3.394-.855A4.5,4.5,0,0,0,10.361-6.29a17.315,17.315,0,0,0,.593-5.056,20.692,20.692,0,0,0-.451-4.866,4.167,4.167,0,0,0-1.614-2.564,5.878,5.878,0,0,0-3.3-.783,6.637,6.637,0,0,0-3.442.973A38.005,38.005,0,0,0-1.579-16l-.332-2.848A17.855,17.855,0,0,1,.937-21.339a11.741,11.741,0,0,1,3.086-1.543A10.581,10.581,0,0,1,7.3-23.4ZM-1.057-32.9v8.45q0,1.472-.095,2.777a14.473,14.473,0,0,1-.427,2.587l.475.665.047,17.85L-5.662-.806V-32.9Zm32.8,9.495a15.087,15.087,0,0,1,6.528,1.187,7,7,0,0,1,3.513,3.869,19.538,19.538,0,0,1,1.068,7.1,19.7,19.7,0,0,1-1.068,7.145A7,7,0,0,1,38.276-.237,15.087,15.087,0,0,1,31.748.95a14.954,14.954,0,0,1-6.48-1.187,7.093,7.093,0,0,1-3.537-3.869,19.31,19.31,0,0,1-1.092-7.145,19.151,19.151,0,0,1,1.092-7.1,7.093,7.093,0,0,1,3.537-3.869A14.954,14.954,0,0,1,31.748-23.4Zm0,3.7a7.8,7.8,0,0,0-3.75.76,4.221,4.221,0,0,0-1.946,2.587,17.91,17.91,0,0,0-.57,5.1,18.17,18.17,0,0,0,.57,5.127A4.134,4.134,0,0,0,28-3.536a8.012,8.012,0,0,0,3.75.736,8.163,8.163,0,0,0,3.774-.736,4.11,4.11,0,0,0,1.97-2.587,18.169,18.169,0,0,0,.57-5.127,17.909,17.909,0,0,0-.57-5.1,4.2,4.2,0,0,0-1.97-2.587A7.945,7.945,0,0,0,31.748-19.7Zm23.5-9.922V-6.266a3.179,3.179,0,0,0,.688,2.3,3.258,3.258,0,0,0,2.35.688H61.7L62.227.1A12.757,12.757,0,0,1,60.4.476q-1.021.142-2.041.214T56.72.76a6,6,0,0,1-4.51-1.614,6.413,6.413,0,0,1-1.567-4.653V-29.623Zm7.216,6.789v3.418h-16V-22.6l4.558-.237Z" transform="translate(974 353.661)" fill="#fff" stroke="#fff" stroke-linecap="round" stroke-linejoin="round" stroke-width="2"/></g></svg>